<?xml version="1.0" encoding="UTF-8"?>
<svg width="12px" height="17px" viewBox="0 0 12 17" version="1.1" xmlns="http://www.w3.org/2000/svg" xmlns:xlink="http://www.w3.org/1999/xlink">
    <!-- Generator: Sketch 62 (91390) - https://sketch.com -->
    <title>arrow up icon</title>
    <desc>Created with Sketch.</desc>
    <g id="arrow-up-icon" stroke="none" stroke-width="1" fill="none" fill-rule="evenodd">
        <path d="M13.7820581,7.97435092 L9.0207401,3.21751381 C8.73007651,2.9274954 8.25900361,2.9274954 7.968712,3.21751381 C7.67812281,3.50790385 7.67812281,3.97853342 7.968712,4.26884914 L11.4597996,7.75665129 L-1.25604406,7.75665129 C-1.66693093,7.75665129 -2,8.08962989 -2,8.49990709 C-2,8.91040727 -1.66693093,9.24316289 -1.25604406,9.24316289 L11.4597996,9.24316289 L7.968712,12.731188 C7.67812281,13.0215781 7.67812281,13.4922076 7.968712,13.7825234 C8.1140066,13.9273839 8.30438492,14 8.49468885,14 C8.68506718,14 8.87574308,13.9273839 9.0207401,13.7825234 L13.7820581,9.02568624 C14.0726473,8.73537053 14.0726473,8.26474096 13.7820581,7.97435092 Z" id="arrow-down-icon" fill="#1831AA" transform="translate(6.000000, 8.500000) scale(1, -1) rotate(90.000000) translate(-6.000000, -8.500000) "></path>
    </g>
</svg>