<?xml version="1.0" encoding="UTF-8"?>
<svg width="12px" height="17px" viewBox="0 0 12 17" version="1.1" xmlns="http://www.w3.org/2000/svg" xmlns:xlink="http://www.w3.org/1999/xlink">
    <!-- Generator: Sketch 62 (91390) - https://sketch.com -->
    <title>arrow down icon</title>
    <desc>Created with Sketch.</desc>
    <g id="arrow-down-icon" stroke="none" stroke-width="1" fill="none" fill-rule="evenodd">
        <path d="M14.571161,7.97435092 L9.5717771,3.21751381 C9.26658034,2.9274954 8.77195379,2.9274954 8.4671476,3.21751381 C8.16202895,3.50790385 8.16202895,3.97853342 8.4671476,4.26884914 L12.1327896,7.75665129 L-1.21884626,7.75665129 C-1.65027747,7.75665129 -2,8.08962989 -2,8.49990709 C-2,8.91040727 -1.65027747,9.24316289 -1.21884626,9.24316289 L12.1327896,9.24316289 L8.4671476,12.731188 C8.16202895,13.0215781 8.16202895,13.4922076 8.4671476,13.7825234 C8.61970693,13.9273839 8.81960417,14 9.01942329,14 C9.21932054,14 9.41953024,13.9273839 9.5717771,13.7825234 L14.571161,9.02568624 C14.8762797,8.73537053 14.8762797,8.26474096 14.571161,7.97435092 Z" fill="#1831AA" transform="translate(6.400000, 8.500000) rotate(90.000000) translate(-6.400000, -8.500000) "></path>
    </g>
</svg>