<?xml version="1.0" encoding="UTF-8"?>
<svg width="18px" height="18px" viewBox="0 0 18 18" version="1.1" xmlns="http://www.w3.org/2000/svg" xmlns:xlink="http://www.w3.org/1999/xlink">
    <!-- Generator: Sketch 63.1 (92452) - https://sketch.com -->
    <title>icon cancel</title>
    <desc>Created with Sketch.</desc>
    <g id="Shop-pages" stroke="none" stroke-width="1" fill="none" fill-rule="evenodd">
        <g id="icon-cancel" transform="translate(-11.000000, -12.000000)">
            <g transform="translate(11.000385, 11.048692)" id="cancel-icon">
                <g transform="translate(-0.000385, 0.951308)">
                    <rect id="mask" x="0" y="0" width="18" height="18"></rect>
                    <path d="M8.12330769,8.82423077 L1.14976923,15.7965385 C0.956230769,15.9913077 0.956230769,16.3048462 1.14976923,16.4983846 C1.24607692,16.5959231 1.37346154,16.6439231 1.50084615,16.6439231 C1.627,16.6439231 1.75438462,16.5959231 1.85069231,16.4983846 L8.87592308,9.47315385 L15.9023846,16.4983846 C15.9983846,16.5959231 16.1257692,16.6439231 16.2519231,16.6439231 C16.3793077,16.6439231 16.5057692,16.5959231 16.603,16.4983846 C16.7965385,16.3048462 16.7965385,15.9913077 16.603,15.7965385 L9.63069231,8.82423077 L16.6079231,1.84576923 C16.8011538,1.65223077 16.8011538,1.33869231 16.6079231,1.14515385 C16.4143846,0.951615385 16.1005385,0.951615385 15.907,1.14515385 L8.87715385,8.17530769 L1.84576923,1.14515385 C1.65223077,0.951615385 1.33869231,0.951615385 1.14515385,1.14515385 C0.951615385,1.33869231 0.951615385,1.65223077 1.14515385,1.84576923 L8.12330769,8.82423077 Z" id="Fill-1" stroke="#FFFFFF" fill="#FFFFFF"></path>
                </g>
            </g>
        </g>
    </g>
</svg>