<svg xmlns="http://www.w3.org/2000/svg" width="50" height="50" viewBox="0 0 40 40">
    <g fill="none" fill-rule="evenodd">
        <circle cx="20" cy="20" r="20"/>
        <g fill="#040F2A" fill-rule="nonzero">
            <path d="M24.84 9h-9.802A6.045 6.045 0 0 0 9 15.038v9.803a6.044 6.044 0 0 0 6.038 6.038h9.803a6.045 6.045 0 0 0 6.038-6.038v-9.803A6.045 6.045 0 0 0 24.84 9zm4.098 15.84a4.101 4.101 0 0 1-4.097 4.097h-9.803a4.101 4.101 0 0 1-4.097-4.096v-9.803a4.101 4.101 0 0 1 4.097-4.097h9.803a4.101 4.101 0 0 1 4.097 4.097v9.803z"/>
            <path d="M19.94 14.302a5.644 5.644 0 0 0-5.638 5.638 5.644 5.644 0 0 0 5.637 5.637 5.644 5.644 0 0 0 5.638-5.637 5.644 5.644 0 0 0-5.638-5.638zm0 9.334a3.7 3.7 0 0 1-3.697-3.697 3.7 3.7 0 0 1 3.696-3.696 3.7 3.7 0 0 1 3.697 3.696 3.7 3.7 0 0 1-3.697 3.697zM25.813 12.656a1.43 1.43 0 0 0-1.423 1.424c0 .374.152.741.418 1.006.264.264.631.417 1.005.417.376 0 .742-.153 1.007-.417.265-.265.417-.632.417-1.006a1.43 1.43 0 0 0-.417-1.007 1.43 1.43 0 0 0-1.007-.417z"/>
        </g>
    </g>
</svg>
