<?xml version="1.0" encoding="UTF-8"?>
<svg width="50px" height="50px" viewBox="0 0 50 50" version="1.1" xmlns="http://www.w3.org/2000/svg" xmlns:xlink="http://www.w3.org/1999/xlink">
    <title>menu</title>
    <g id="menu" stroke="none" stroke-width="1" fill="none" fill-rule="evenodd">
        <g>
            <circle id="field" fill="#FFFFFF" cx="25" cy="25" r="25"></circle>
            <g transform="translate(15.000000, 16.000000)" fill="#1831AA">
                <path d="M0.807890625,9.83926654 C0.36171875,9.83926654 0,9.37972059 0,8.81277022 C0,8.24581985 0.36171875,7.7862739 0.807890625,7.7862739 L19.1921094,7.7862739 C19.6383203,7.7862739 20,8.24586949 20,8.81277022 C20,9.37972059 19.6383203,9.83926654 19.1921094,9.83926654 L0.807890625,9.83926654 Z" id="Fill-1"></path>
                <path d="M19.1921094,2.05299265 L0.807890625,2.05299265 C0.36171875,2.05299265 0,1.59339706 0,1.02649632 C0,0.459595588 0.36171875,3.38552715e-14 0.807890625,3.38552715e-14 L19.1921094,3.38552715e-14 C19.6383203,3.38552715e-14 20,0.459595588 20,1.02649632 C20,1.59339706 19.6383203,2.05299265 19.1921094,2.05299265" id="Fill-3"></path>
                <path d="M19.1921094,17.6255404 L0.807890625,17.6255404 C0.36171875,17.6255404 0,17.1659945 0,16.5990441 C0,16.0320937 0.36171875,15.5725478 0.807890625,15.5725478 L19.1921094,15.5725478 C19.6383203,15.5725478 20,16.0320937 20,16.5990441 C20,17.1659945 19.6383203,17.6255404 19.1921094,17.6255404" id="Fill-4"></path>
            </g>
        </g>
    </g>
</svg>