<svg xmlns="http://www.w3.org/2000/svg" width="20" height="21" viewBox="0 0 20 21">
    <path fill="#FFF" stroke="#FFF" stroke-width=".5" d="M6.18 13.858h10.761c1.22 0 2.215-.995 2.215-2.215V7.116v-.017-.032c0-.008 0-.016-.004-.024 0-.008-.004-.02-.004-.028s-.004-.016-.004-.024c-.004-.008-.004-.016-.008-.028-.004-.008-.004-.016-.008-.024s-.004-.016-.008-.024-.008-.016-.012-.028c-.004-.008-.008-.016-.012-.02l-.012-.024-.012-.02c-.004-.008-.012-.016-.016-.025-.004-.008-.008-.012-.016-.02-.004-.008-.012-.012-.016-.02s-.012-.012-.016-.02-.012-.012-.016-.016l-.02-.02c-.008-.004-.012-.012-.02-.016s-.016-.012-.024-.016l-.02-.012c-.008-.004-.016-.008-.024-.016l-.025-.012-.024-.012-.024-.012c-.008-.004-.016-.004-.024-.008s-.02-.008-.028-.008-.016-.004-.02-.004c-.012-.004-.02-.004-.032-.004-.004 0-.008-.004-.016-.004L5.053 4.695V2.793c0-.02 0-.04-.004-.056 0-.004 0-.008-.004-.016 0-.012-.005-.024-.005-.037l-.008-.032c0-.008-.004-.012-.004-.02l-.012-.036-.004-.016c-.004-.012-.008-.02-.016-.032-.004-.004-.004-.012-.008-.016-.004-.008-.008-.016-.016-.024l-.012-.02-.012-.02c-.004-.008-.012-.016-.016-.024l-.012-.012-.024-.024-.012-.012c-.008-.009-.016-.017-.028-.025L4.84 2.36c-.008-.008-.016-.012-.024-.02l-.032-.02c-.004-.004-.008-.004-.012-.008l-.053-.024-2.958-1.244c-.277-.116-.594.012-.71.289-.116.277.012.594.289.71L3.965 3.15V15.022c0 1.124.843 2.055 1.93 2.196-.196.329-.313.714-.313 1.124 0 1.208.984 2.187 2.188 2.187 1.204 0 2.187-.983 2.187-2.187 0-.402-.108-.783-.3-1.104h4.872c-.193.325-.301.702-.301 1.104 0 1.208.983 2.187 2.187 2.187 1.204 0 2.188-.983 2.188-2.187 0-1.204-.984-2.188-2.188-2.188H6.18c-.626 0-1.131-.51-1.131-1.132v-1.469c.329.193.718.305 1.131.305zm2.698 4.48c0 .61-.498 1.103-1.104 1.103-.606 0-1.104-.497-1.104-1.103s.498-1.104 1.104-1.104c.606 0 1.104.494 1.104 1.104zm8.645 0c0 .61-.498 1.103-1.104 1.103-.606 0-1.104-.497-1.104-1.103s.498-1.104 1.104-1.104c.606 0 1.104.494 1.104 1.104zm-.582-5.563H6.181c-.627 0-1.132-.51-1.132-1.132V5.787l13.024 1.794v4.058c0 .63-.51 1.136-1.132 1.136z"/>
</svg>
