<svg xmlns="http://www.w3.org/2000/svg" width="40" height="40" viewBox="0 0 40 40">
    <g fill="none" fill-rule="evenodd">
        <circle cx="20" cy="20" r="20"/>
        <g fill="#1831AA" fill-rule="nonzero">
            <path d="M30.75 21.889c.714-6.019-.344-9.818-2.254-11.537h.001c-3.081-2.936-13.489-3.37-17.175.131-1.656 1.713-2.24 4.226-2.303 7.338-.064 3.112-.14 8.943 5.293 10.525h.005l-.005 2.415s-.036.979.589 1.176c.715.231 1.038-.223 3.262-2.88 3.719.323 6.575-.416 6.9-.524.75-.251 5-.813 5.686-6.644zm-12.22 5.47s-2.354 2.934-3.086 3.696c-.24.248-.502.225-.498-.267 0-.322.018-4.01.018-4.01-4.607-1.32-4.335-6.285-4.285-8.882.05-2.599.525-4.727 1.927-6.16 3.234-3.032 12.358-2.354 14.683-.17 2.842 2.52 1.83 9.638 1.836 9.88-.584 4.868-4.027 5.176-4.66 5.387-.27.09-2.782.736-5.936.525z"/>
            <path d="M19.832 12.307c-.385 0-.385.599 0 .604 2.982.023 5.439 2.102 5.466 5.915 0 .403.589.398.584-.005h-.001c-.032-4.109-2.714-6.492-6.05-6.514z"/>
            <path d="M23.755 18.194c-.009.398.58.417.584.014.05-2.266-1.348-4.132-3.973-4.329-.385-.028-.425.576-.041.604 2.277.173 3.476 1.727 3.43 3.711zM23.126 20.771c-.493-.285-.996-.107-1.203.173l-.435.562c-.22.286-.633.248-.633.248-3.01-.796-3.814-3.945-3.814-3.945s-.037-.427.238-.655l.543-.45c.272-.215.444-.735.167-1.245-.739-1.335-1.235-1.795-1.488-2.149-.265-.332-.665-.407-1.08-.183h-.01c-.863.506-1.809 1.451-1.506 2.425.516 1.026 1.465 4.299 4.489 6.771 1.42 1.17 3.67 2.368 4.624 2.645l.01.014c.94.313 1.854-.67 2.343-1.56v-.006c.216-.43.145-.838-.172-1.105-.561-.547-1.408-1.151-2.073-1.54z"/>
            <path d="M20.777 16.108c.96.056 1.425.557 1.475 1.587.018.402.602.374.584-.028-.064-1.344-.765-2.093-2.027-2.163-.384-.023-.42.581-.032.604z"/>
        </g>
    </g>
</svg>
