<svg xmlns="http://www.w3.org/2000/svg" xmlns:xlink="http://www.w3.org/1999/xlink" width="18" height="18" viewBox="0 0 18 18">
    <defs>
        <path id="prefix__a" d="M0.021 0.055L17.722 0.055 17.722 17.654 0.021 17.654z"/>
    </defs>
    <g fill="none" fill-rule="evenodd">
        <mask id="prefix__b" fill="#fff">
            <use xlink:href="#prefix__a"/>
        </mask>
        <path fill="#1831AA" stroke="#1831AA" d="M8.014 8.857L.17 16.701c-.218.219-.218.572 0 .79.108.11.252.163.395.163.142 0 .285-.054.393-.164l7.904-7.903 7.905 7.903c.108.11.25.164.393.164.143 0 .285-.054.395-.164.218-.217.218-.57 0-.79L9.71 8.858l7.85-7.85c.217-.218.217-.571 0-.789-.218-.218-.571-.218-.79 0L8.863 8.127.952.218C.734 0 .382 0 .164.218c-.218.218-.218.57 0 .788l7.85 7.851z" mask="url(#prefix__b)"/>
    </g>
</svg>
