<?xml version="1.0" encoding="UTF-8"?>
<svg width="52px" height="62px" viewBox="0 0 52 62" version="1.1" xmlns="http://www.w3.org/2000/svg" xmlns:xlink="http://www.w3.org/1999/xlink">
    <!-- Generator: Sketch 61.2 (89653) - https://sketch.com -->
    <title>map-marker building active</title>
    <desc>Created with Sketch.</desc>
    <defs>
        <circle id="path-1" cx="17.5" cy="17.5" r="17.5"></circle>
    </defs>
    <g id="DESIGN" stroke="none" stroke-width="1" fill="none" fill-rule="evenodd">
        <g id="map-markers-set" transform="translate(-757.000000, -350.000000)">
            <g id="map-marker-building-active" transform="translate(758.000000, 351.000000)">
                <path d="M25,0 C11.2151227,0 0,11.0398864 0,24.609375 C0,35.5499268 7.32375369,45.1419068 17.9096912,48.2139587 L23.4026227,59.0281677 C23.7048921,59.6237182 24.3233817,60 25,60 C25.6761533,60 26.2946429,59.6237182 26.5969121,59.0281677 L32.0898438,48.2144166 C42.6762463,45.1423645 50,35.5503845 50,24.609375 C50,11.0398864 38.7848773,0 25,0 Z M24.9285714,40.7890625 C16.1063492,40.7890625 8.92857143,33.6112847 8.92857143,24.7890625 C8.92857143,15.9668403 16.1063492,8.7890625 24.9285714,8.7890625 C33.7507937,8.7890625 40.9285714,15.9668403 40.9285714,24.7890625 C40.9285714,33.6112847 33.7507937,40.7890625 24.9285714,40.7890625 Z" id="Shape" stroke="#FFFFFF" fill="#051230" fill-rule="nonzero"></path>
                <g id="unnamed" transform="translate(8.000000, 8.000000)">
                    <mask id="mask-2" fill="white">
                        <use xlink:href="#path-1"></use>
                    </mask>
                    <use id="Mask" fill="#051230" xlink:href="#path-1"></use>
                    <g id="buliding-icon" mask="url(#mask-2)" fill="#FFFFFF" fill-rule="nonzero">
                        <g transform="translate(5.000000, 6.000000)" id="Shape">
                            <path d="M21.4097413,0.0157268994 L12.4484784,0.0157268994 C11.5167187,0.0157268994 10.7610719,0.77175154 10.7610719,1.70266119 L10.7610719,9.57829569 L0.720839836,13.6020205 C0.132521561,13.8379713 -0.153301848,14.5060575 0.0828377823,15.0946119 C0.262540041,15.5428994 0.693305955,15.8148378 1.14825257,15.8148378 C1.29012526,15.8148378 1.43473717,15.7885791 1.57476797,15.732614 L10.7611663,12.0502526 L10.7611663,13.3463758 L2.66441068,16.3377454 C2.27034086,16.4826879 2.00855647,16.8592834 2.00855647,17.2792341 L2.00855647,21.9828522 C2.00855647,22.5370246 2.45797741,22.9868234 3.01252772,22.9868234 L5.92922998,22.9868234 L5.92922998,18.8748768 C5.92922998,18.3207043 6.37865092,17.8709055 6.93320123,17.8709055 L8.17642916,17.8709055 C8.73116838,17.8709055 9.18040041,18.3206099 9.18040041,18.8748768 L9.18040041,22.9868234 L12.3614374,22.9868234 L12.3614374,22.9659959 L21.4098357,22.9659959 C22.3413593,22.9659959 23.0970062,22.2099713 23.0970062,21.2790144 L23.0970062,1.70261396 C23.0970062,0.771704312 22.3412649,0.0157268994 21.4097413,0.0157268994 Z M15.997232,19.184078 C15.997232,19.4605503 15.7731355,19.684694 15.496616,19.684694 L13.7987721,19.684694 C13.5222998,19.684694 13.2981561,19.4606448 13.2981561,19.184078 L13.2981561,17.4868008 C13.2981561,17.2103285 13.5222526,16.986232 13.7987721,16.986232 L15.496616,16.986232 C15.7730883,16.986232 15.997232,17.2102813 15.997232,17.4868008 L15.997232,19.184078 Z M15.997232,14.9914661 C15.997232,15.063347 15.939,15.1216735 15.8670719,15.1216735 L13.798961,15.1216735 C13.5224887,15.1216735 13.298345,14.897577 13.298345,14.6210575 L13.298345,12.9237331 C13.298345,12.6472608 13.5224415,12.4231643 13.798961,12.4231643 L15.496616,12.4231643 C15.7730883,12.4231643 15.997232,12.6472608 15.997232,12.9237331 L15.997232,14.9914661 L15.997232,14.9914661 Z M15.997232,10.057848 C15.997232,10.3343203 15.7731355,10.5584168 15.496616,10.5584168 L13.7987721,10.5584168 C13.5222998,10.5584168 13.2981561,10.3343203 13.2981561,10.057848 L13.2981561,8.36052361 C13.2981561,8.08405133 13.5222526,7.85995483 13.7987721,7.85995483 L15.496616,7.85995483 C15.7730883,7.85995483 15.997232,8.08405133 15.997232,8.36052361 L15.997232,10.057848 Z M15.997232,5.49539425 C15.997232,5.77186653 15.7731355,5.99596304 15.496616,5.99596304 L13.798961,5.99596304 C13.5224887,5.99596304 13.2983922,5.77186653 13.2983922,5.49539425 L13.2983922,3.79731417 C13.2983922,3.52084189 13.5224415,3.29674538 13.798961,3.29674538 L15.496616,3.29674538 C15.7730883,3.29674538 15.997232,3.52084189 15.997232,3.79731417 L15.997232,5.49539425 L15.997232,5.49539425 Z M20.5598275,19.184078 C20.5598275,19.4605503 20.3357782,19.684694 20.0592587,19.684694 L18.3615565,19.684694 C18.0850842,19.684694 17.8609877,19.4606448 17.8609877,19.184078 L17.8609877,17.4868008 C17.8609877,17.2103285 18.085037,16.986232 18.3615565,16.986232 L20.0592587,16.986232 C20.335731,16.986232 20.5598275,17.2102813 20.5598275,17.4868008 L20.5598275,19.184078 Z M20.5598275,14.6209158 C20.5598275,14.8973409 20.3357782,15.1214374 20.059306,15.1214374 L18.3615565,15.1214374 C18.0850842,15.1214374 17.8610349,14.8973409 17.8610349,14.6209158 L17.8610349,12.9236386 C17.8610349,12.6472136 18.0850842,12.423117 18.3615565,12.423117 L20.059306,12.423117 C20.3357782,12.423117 20.5598275,12.6472136 20.5598275,12.9236386 L20.5598275,14.6209158 Z M20.5598275,10.057848 C20.5598275,10.3343203 20.3357782,10.5584168 20.0592587,10.5584168 L18.3615565,10.5584168 C18.0850842,10.5584168 17.8609877,10.3343203 17.8609877,10.057848 L17.8609877,8.36052361 C17.8609877,8.08405133 18.085037,7.85995483 18.3615565,7.85995483 L20.0592587,7.85995483 C20.335731,7.85995483 20.5598275,8.08405133 20.5598275,8.36052361 L20.5598275,10.057848 Z M20.5598275,5.49539425 C20.5598275,5.77186653 20.3357782,5.99596304 20.0592587,5.99596304 L18.3613676,5.99596304 C18.0848953,5.99596304 17.8607515,5.77186653 17.8607515,5.49539425 L17.8607515,3.79731417 C17.8607515,3.52084189 18.084848,3.29674538 18.3613676,3.29674538 L20.0592587,3.29674538 C20.335731,3.29674538 20.5598275,3.52084189 20.5598275,3.79731417 L20.5598275,5.49539425 Z"></path>
                        </g>
                    </g>
                </g>
            </g>
        </g>
    </g>
</svg>