<?xml version="1.0" encoding="UTF-8"?>
<svg width="47px" height="57px" viewBox="0 0 47 57" version="1.1" xmlns="http://www.w3.org/2000/svg" xmlns:xlink="http://www.w3.org/1999/xlink">
    <!-- Generator: Sketch 61.2 (89653) - https://sketch.com -->
    <title>map-marker building</title>
    <desc>Created with Sketch.</desc>
    <defs>
        <circle id="path-1" cx="15.5" cy="15.5" r="15.5"></circle>
    </defs>
    <g id="DESIGN" stroke="none" stroke-width="1" fill="none" fill-rule="evenodd">
        <g id="map-markers-set" transform="translate(-694.000000, -350.000000)">
            <g id="map-marker-building" transform="translate(695.000000, 351.000000)">
                <path d="M22.5,0 C10.0936105,0 0,10.0936105 0,22.5 C0,32.5027902 6.59137832,41.2726005 16.1187221,44.0813337 L21.0623605,53.9686105 C21.3344029,54.5131138 21.8910435,54.8571429 22.5,54.8571429 C23.108538,54.8571429 23.6651786,54.5131138 23.9372209,53.9686105 L28.8808594,44.0817523 C38.4086217,41.273019 45,32.5032087 45,22.5 C45,10.0936105 34.9063895,0 22.5,0 Z M22.5,36.9642857 C14.5245536,36.9642857 8.03571429,30.4754464 8.03571429,22.5 C8.03571429,14.5245536 14.5245536,8.03571429 22.5,8.03571429 C30.4754464,8.03571429 36.9642857,14.5245536 36.9642857,22.5 C36.9642857,30.4754464 30.4754464,36.9642857 22.5,36.9642857 Z" id="Shape" stroke="#FFFFFF" fill="#1831AA" fill-rule="nonzero"></path>
                <g id="unnamed" transform="translate(7.000000, 7.000000)">
                    <mask id="mask-2" fill="white">
                        <use xlink:href="#path-1"></use>
                    </mask>
                    <use id="Mask" fill="#FFFFFF" xlink:href="#path-1"></use>
                    <g id="buliding-icon" mask="url(#mask-2)" fill="#1831AA" fill-rule="nonzero">
                        <g transform="translate(5.000000, 6.000000)" id="Shape">
                            <path d="M17.686308,0.0129917864 L10.2835257,0.0129917864 C9.51381109,0.0129917864 8.88958111,0.637533881 8.88958111,1.4065462 L8.88958111,7.91250513 L0.595476386,11.2364517 C0.109474333,11.4313676 -0.126640657,11.9832649 0.0684312115,12.469462 C0.216880903,12.8397864 0.572731006,13.0644312 0.948556468,13.0644312 C1.06575565,13.0644312 1.18521766,13.0427392 1.30089528,12.9965072 L8.88965914,9.95455647 L8.88965914,11.0252669 L2.20103491,13.4963984 C1.87549897,13.6161335 1.6592423,13.9272341 1.6592423,14.2741499 L1.6592423,18.1597474 C1.6592423,18.6175421 2.03050308,18.989115 2.48860986,18.989115 L4.89805955,18.989115 L4.89805955,15.5922895 C4.89805955,15.1344949 5.26932033,14.762922 5.7274271,14.762922 L6.75444148,14.762922 C7.21270431,14.762922 7.58380903,15.1344168 7.58380903,15.5922895 L7.58380903,18.989115 L10.2116222,18.989115 L10.2116222,18.9719097 L17.686386,18.9719097 C18.4559055,18.9719097 19.0801355,18.3473676 19.0801355,17.5783162 L19.0801355,1.40650719 C19.0801355,0.637494867 18.4558275,0.0129917864 17.686308,0.0129917864 Z M13.2151047,15.8477166 C13.2151047,16.0761068 13.0299815,16.261269 12.8015524,16.261269 L11.3989856,16.261269 C11.1705955,16.261269 10.9854333,16.0761848 10.9854333,15.8477166 L10.9854333,14.4456181 C10.9854333,14.2172279 11.1705565,14.0321047 11.3989856,14.0321047 L12.8015524,14.0321047 C13.0299425,14.0321047 13.2151047,14.2171889 13.2151047,14.4456181 L13.2151047,15.8477166 Z M13.2151047,12.3842546 C13.2151047,12.4436345 13.167,12.4918172 13.1075811,12.4918172 L11.3991417,12.4918172 C11.1707515,12.4918172 10.9855893,12.306694 10.9855893,12.0782649 L10.9855893,10.6761273 C10.9855893,10.4477372 11.1707125,10.262614 11.3991417,10.262614 L12.8015524,10.262614 C13.0299425,10.262614 13.2151047,10.4477372 13.2151047,10.6761273 L13.2151047,12.3842546 L13.2151047,12.3842546 Z M13.2151047,8.30865708 C13.2151047,8.53704723 13.0299815,8.72217043 12.8015524,8.72217043 L11.3989856,8.72217043 C11.1705955,8.72217043 10.9854333,8.53704723 10.9854333,8.30865708 L10.9854333,6.90651951 C10.9854333,6.67812936 11.1705565,6.49300616 11.3989856,6.49300616 L12.8015524,6.49300616 C13.0299425,6.49300616 13.2151047,6.67812936 13.2151047,6.90651951 L13.2151047,8.30865708 Z M13.2151047,4.53967351 C13.2151047,4.76806366 13.0299815,4.95318686 12.8015524,4.95318686 L11.3991417,4.95318686 C11.1707515,4.95318686 10.9856283,4.76806366 10.9856283,4.53967351 L10.9856283,3.1369117 C10.9856283,2.90852156 11.1707125,2.72339836 11.3991417,2.72339836 L12.8015524,2.72339836 C13.0299425,2.72339836 13.2151047,2.90852156 13.2151047,3.1369117 L13.2151047,4.53967351 L13.2151047,4.53967351 Z M16.9842053,15.8477166 C16.9842053,16.0761068 16.7991211,16.261269 16.570692,16.261269 L15.1682423,16.261269 C14.9398522,16.261269 14.754729,16.0761848 14.754729,15.8477166 L14.754729,14.4456181 C14.754729,14.2172279 14.9398131,14.0321047 15.1682423,14.0321047 L16.570692,14.0321047 C16.7990821,14.0321047 16.9842053,14.2171889 16.9842053,14.4456181 L16.9842053,15.8477166 Z M16.9842053,12.0781478 C16.9842053,12.306499 16.7991211,12.4916222 16.570731,12.4916222 L15.1682423,12.4916222 C14.9398522,12.4916222 14.754768,12.306499 14.754768,12.0781478 L14.754768,10.6760493 C14.754768,10.4476982 14.9398522,10.2625749 15.1682423,10.2625749 L16.570731,10.2625749 C16.7991211,10.2625749 16.9842053,10.4476982 16.9842053,10.6760493 L16.9842053,12.0781478 Z M16.9842053,8.30865708 C16.9842053,8.53704723 16.7991211,8.72217043 16.570692,8.72217043 L15.1682423,8.72217043 C14.9398522,8.72217043 14.754729,8.53704723 14.754729,8.30865708 L14.754729,6.90651951 C14.754729,6.67812936 14.9398131,6.49300616 15.1682423,6.49300616 L16.570692,6.49300616 C16.7990821,6.49300616 16.9842053,6.67812936 16.9842053,6.90651951 L16.9842053,8.30865708 Z M16.9842053,4.53967351 C16.9842053,4.76806366 16.7991211,4.95318686 16.570692,4.95318686 L15.1680862,4.95318686 C14.9396961,4.95318686 14.7545339,4.76806366 14.7545339,4.53967351 L14.7545339,3.1369117 C14.7545339,2.90852156 14.9396571,2.72339836 15.1680862,2.72339836 L16.570692,2.72339836 C16.7990821,2.72339836 16.9842053,2.90852156 16.9842053,3.1369117 L16.9842053,4.53967351 Z"></path>
                        </g>
                    </g>
                </g>
            </g>
        </g>
    </g>
</svg>