<?xml version="1.0" encoding="UTF-8"?>
<svg width="47px" height="57px" viewBox="0 0 47 57" version="1.1" xmlns="http://www.w3.org/2000/svg" xmlns:xlink="http://www.w3.org/1999/xlink">
    <!-- Generator: Sketch 61.2 (89653) - https://sketch.com -->
    <title>map-marker castle</title>
    <desc>Created with Sketch.</desc>
    <defs>
        <circle id="path-1" cx="15.5" cy="15.5" r="15.5"></circle>
    </defs>
    <g id="DESIGN" stroke="none" stroke-width="1" fill="none" fill-rule="evenodd">
        <g id="map-markers-set" transform="translate(-694.000000, -197.000000)">
            <g id="map-marker-castle" transform="translate(695.000000, 198.000000)">
                <path d="M22.5,0 C10.0936105,0 0,10.0936105 0,22.5 C0,32.5027902 6.59137832,41.2726005 16.1187221,44.0813337 L21.0623605,53.9686105 C21.3344029,54.5131138 21.8910435,54.8571429 22.5,54.8571429 C23.108538,54.8571429 23.6651786,54.5131138 23.9372209,53.9686105 L28.8808594,44.0817523 C38.4086217,41.273019 45,32.5032087 45,22.5 C45,10.0936105 34.9063895,0 22.5,0 Z M22.5,36.9642857 C14.5245536,36.9642857 8.03571429,30.4754464 8.03571429,22.5 C8.03571429,14.5245536 14.5245536,8.03571429 22.5,8.03571429 C30.4754464,8.03571429 36.9642857,14.5245536 36.9642857,22.5 C36.9642857,30.4754464 30.4754464,36.9642857 22.5,36.9642857 Z" id="Shape" stroke="#FFFFFF" fill="#1831AA" fill-rule="nonzero"></path>
                <g id="unnamed" transform="translate(7.000000, 7.000000)">
                    <mask id="mask-2" fill="white">
                        <use xlink:href="#path-1"></use>
                    </mask>
                    <use id="Mask" fill="#FFFFFF" xlink:href="#path-1"></use>
                    <g id="castle-icon" mask="url(#mask-2)" fill="#1831AA" fill-rule="nonzero">
                        <g transform="translate(7.000000, 5.000000)">
                            <path d="M6.01445455,8.17601653 L11.8502479,8.17601653 C11.9298347,8.17601653 12.0032107,8.13094215 12.0392479,8.05942562 C12.0753595,7.98790909 12.0678099,7.90240909 12.0199835,7.83803306 L9.13596694,3.94389669 L9.13596694,2.45309504 L12.4154628,1.61297107 C12.4540289,1.60333884 12.4813636,1.56852893 12.4813636,1.52869835 C12.4813636,1.48894215 12.4540661,1.45409504 12.4154628,1.44442562 L9.1353719,0.603780992 L9.1353719,0.203950413 C9.1353719,0.0913760331 9.04392149,0 8.9313843,0 C8.8188843,0.000297520661 8.72747107,0.0913760331 8.72747107,0.203950413 L8.72810331,3.94482645 L5.8447562,7.83803306 C5.79681818,7.90240909 5.78938017,7.98790909 5.82541736,8.05942562 C5.86145455,8.13094215 5.93483058,8.17601653 6.01445455,8.17601653 Z" id="Path"></path>
                            <path d="M16.9051983,6.57821901 C16.7543182,6.57821901 16.6320372,6.7005 16.6320372,6.85138017 L16.6320372,7.53738843 L15.9132645,7.53738843 L15.9132645,6.85138017 C15.9132645,6.7005 15.7909835,6.57821901 15.6401033,6.57821901 L14.9780826,6.57821901 C14.8272025,6.57821901 14.7049215,6.7005 14.7049215,6.85138017 L14.7049215,7.53738843 L13.987376,7.53738843 L13.987376,6.85138017 C13.987376,6.7005 13.865095,6.57821901 13.7142149,6.57821901 L13.0514132,6.57821901 C12.9006446,6.57821901 12.7784008,6.70031405 12.7782521,6.85108264 L12.7711116,13.7151446 L11.3571074,13.7151446 L11.3571074,9.0048719 C11.3571074,8.87704959 11.2538678,8.7738843 11.1263802,8.7738843 L6.73824793,8.7738843 C6.61079752,8.7738843 6.50752066,8.87704959 6.50752066,9.0048719 L6.50752066,13.7151446 L5.11783884,13.7151446 L5.12122314,10.844405 C5.12129752,10.7719215 5.09254959,10.7023388 5.04133884,10.6510537 C4.9901281,10.5997686 4.92058264,10.5709463 4.84809917,10.5709463 L4.17343388,10.5709463 C4.02255372,10.5709463 3.90027273,10.6932273 3.90027273,10.8441074 L3.90027273,11.5680496 L3.18265289,11.5680496 L3.18265289,10.8822273 C3.18265289,10.7310868 3.06014876,10.6088802 2.90967769,10.6088802 L2.24743388,10.6088802 C2.09692562,10.6088802 1.97442149,10.7310868 1.97442149,10.8822273 L1.97442149,11.5680496 L1.25564876,11.5680496 L1.25564876,10.8822273 C1.25564876,10.7310868 1.13318182,10.6088802 0.982636364,10.6088802 L0.320392562,10.6088802 C0.169289256,10.6088802 0.0474173554,10.7307521 0.046785124,10.8815579 L0.0356280992,17.9631446 L17.8445826,17.9631446 L17.8530993,6.8516405 C17.8530993,6.77915702 17.8243884,6.70964876 17.7731777,6.65836364 C17.7219669,6.60707851 17.6524587,6.57821901 17.5799752,6.57821901 L16.9051983,6.57821901 L16.9051983,6.57821901 Z M3.38783058,14.7135496 C3.38783058,14.8413347 3.28466529,14.9445372 3.1571405,14.9445372 L2.00052893,14.9445372 C1.87307851,14.9445372 1.76991322,14.8413347 1.76991322,14.7135496 L1.76991322,13.6819711 C1.76991322,13.2351694 2.13173554,12.872938 2.57883471,12.872938 C3.02530165,12.872938 3.38783058,13.2351694 3.38783058,13.6819711 L3.38783058,14.7135496 Z M9.74097521,12.179938 C9.74097521,12.3077231 9.63773554,12.4109256 9.51032231,12.4109256 L8.35371074,12.4109256 C8.22618595,12.4109256 8.12298347,12.3077231 8.12298347,12.179938 L8.12298347,11.1483223 C8.12298347,10.7015579 8.48484298,10.3393636 8.93201653,10.3393636 C9.37844628,10.3393636 9.74097521,10.7015579 9.74097521,11.1483223 L9.74097521,12.179938 Z M16.1189628,10.6828884 C16.1189628,10.8106736 16.0158347,10.9139132 15.8883471,10.9139132 L14.7317355,10.9139132 C14.6042107,10.9139132 14.5010826,10.8107107 14.5010826,10.6828884 L14.5010826,9.65130992 C14.5010826,9.20454545 14.8629421,8.84231405 15.3100041,8.84231405 C15.7565455,8.84231405 16.1189628,9.20454545 16.1189628,9.65130992 L16.1189628,10.6828884 L16.1189628,10.6828884 Z" id="Shape"></path>
                        </g>
                    </g>
                </g>
            </g>
        </g>
    </g>
</svg>