<?xml version="1.0" encoding="UTF-8"?>
<svg width="52px" height="62px" viewBox="0 0 52 62" version="1.1" xmlns="http://www.w3.org/2000/svg" xmlns:xlink="http://www.w3.org/1999/xlink">
    <!-- Generator: Sketch 61.2 (89653) - https://sketch.com -->
    <title>map-marker castel active</title>
    <desc>Created with Sketch.</desc>
    <defs>
        <circle id="path-1" cx="17.5" cy="17.5" r="17.5"></circle>
    </defs>
    <g id="DESIGN" stroke="none" stroke-width="1" fill="none" fill-rule="evenodd">
        <g id="map-markers-set" transform="translate(-757.000000, -197.000000)">
            <g id="map-marker-castel-active" transform="translate(758.000000, 198.000000)">
                <path d="M25,0 C11.2151227,0 0,11.0398864 0,24.609375 C0,35.5499268 7.32375369,45.1419068 17.9096912,48.2139587 L23.4026227,59.0281677 C23.7048921,59.6237182 24.3233817,60 25,60 C25.6761533,60 26.2946429,59.6237182 26.5969121,59.0281677 L32.0898438,48.2144166 C42.6762463,45.1423645 50,35.5503845 50,24.609375 C50,11.0398864 38.7848773,0 25,0 Z M24.9285714,40.7890625 C16.1063492,40.7890625 8.92857143,33.6112847 8.92857143,24.7890625 C8.92857143,15.9668403 16.1063492,8.7890625 24.9285714,8.7890625 C33.7507937,8.7890625 40.9285714,15.9668403 40.9285714,24.7890625 C40.9285714,33.6112847 33.7507937,40.7890625 24.9285714,40.7890625 Z" id="Shape" stroke="#FFFFFF" fill="#051230" fill-rule="nonzero"></path>
                <g id="unnamed" transform="translate(8.000000, 7.868852)">
                    <mask id="mask-2" fill="white">
                        <use xlink:href="#path-1"></use>
                    </mask>
                    <use id="Mask" fill="#051230" xlink:href="#path-1"></use>
                </g>
                <g id="castle-icon" transform="translate(13.000000, 11.000000)" fill="#FFFFFF" fill-rule="nonzero">
                    <path d="M8.01927273,10.9013554 L15.8003306,10.9013554 C15.9064463,10.9013554 16.004281,10.8412562 16.0523306,10.7459008 C16.1004793,10.6505455 16.0904132,10.5365455 16.0266446,10.4507107 L12.1812893,5.25852893 L12.1812893,3.27079339 L16.5539504,2.1506281 C16.6053719,2.13778512 16.6418182,2.0913719 16.6418182,2.03826446 C16.6418182,1.9852562 16.6054215,1.93879339 16.5539504,1.92590083 L12.1804959,0.805041322 L12.1804959,0.271933884 C12.1804959,0.121834711 12.058562,0 11.9085124,0 C11.7585124,0.000396694215 11.6366281,0.121834711 11.6366281,0.271933884 L11.6374711,5.2597686 L7.79300826,10.4507107 C7.72909091,10.5365455 7.71917355,10.6505455 7.76722314,10.7459008 C7.81527273,10.8412562 7.91310744,10.9013554 8.01927273,10.9013554 Z" id="Path"></path>
                    <path d="M22.5402645,8.77095868 C22.3390909,8.77095868 22.1760496,8.934 22.1760496,9.13517355 L22.1760496,10.0498512 L21.217686,10.0498512 L21.217686,9.13517355 C21.217686,8.934 21.0546446,8.77095868 20.8534711,8.77095868 L19.9707769,8.77095868 C19.7696033,8.77095868 19.606562,8.934 19.606562,9.13517355 L19.606562,10.0498512 L18.6498347,10.0498512 L18.6498347,9.13517355 C18.6498347,8.934 18.4867934,8.77095868 18.2856198,8.77095868 L17.4018843,8.77095868 C17.2008595,8.77095868 17.0378678,8.93375207 17.0376694,9.13477686 L17.0281488,18.2868595 L15.1428099,18.2868595 L15.1428099,12.0064959 C15.1428099,11.8360661 15.005157,11.6985124 14.8351736,11.6985124 L8.98433058,11.6985124 C8.81439669,11.6985124 8.67669421,11.8360661 8.67669421,12.0064959 L8.67669421,18.2868595 L6.82378512,18.2868595 L6.82829752,14.4592066 C6.82839669,14.362562 6.79006612,14.2697851 6.72178512,14.201405 C6.65350413,14.1330248 6.56077686,14.094595 6.46413223,14.094595 L5.56457851,14.094595 C5.36340496,14.094595 5.20036364,14.2576364 5.20036364,14.4588099 L5.20036364,15.4240661 L4.24353719,15.4240661 L4.24353719,14.5096364 C4.24353719,14.3081157 4.08019835,14.1451736 3.87957025,14.1451736 L2.99657851,14.1451736 C2.79590083,14.1451736 2.63256198,14.3081157 2.63256198,14.5096364 L2.63256198,15.4240661 L1.67419835,15.4240661 L1.67419835,14.5096364 C1.67419835,14.3081157 1.51090909,14.1451736 1.31018182,14.1451736 L0.427190083,14.1451736 C0.225719008,14.1451736 0.0632231405,14.3076694 0.0623801653,14.5087438 L0.0475041322,23.9508595 L23.7927769,23.9508595 L23.8041324,9.13552066 C23.8041324,9.03887603 23.7658512,8.94619835 23.6975702,8.87781818 C23.6292893,8.80943802 23.5366116,8.77095868 23.4399669,8.77095868 L22.5402645,8.77095868 L22.5402645,8.77095868 Z M4.51710744,19.6180661 C4.51710744,19.7884463 4.37955372,19.9260496 4.20952066,19.9260496 L2.6673719,19.9260496 C2.49743802,19.9260496 2.3598843,19.7884463 2.3598843,19.6180661 L2.3598843,18.2426281 C2.3598843,17.6468926 2.84231405,17.1639174 3.43844628,17.1639174 C4.03373554,17.1639174 4.51710744,17.6468926 4.51710744,18.2426281 L4.51710744,19.6180661 Z M12.9879669,16.2399174 C12.9879669,16.4102975 12.850314,16.5479008 12.6804298,16.5479008 L11.138281,16.5479008 C10.9682479,16.5479008 10.8306446,16.4102975 10.8306446,16.2399174 L10.8306446,14.8644298 C10.8306446,14.2687438 11.313124,13.7858182 11.9093554,13.7858182 C12.504595,13.7858182 12.9879669,14.2687438 12.9879669,14.8644298 L12.9879669,16.2399174 Z M21.4919504,14.2438512 C21.4919504,14.4142314 21.3544463,14.5518843 21.1844628,14.5518843 L19.642314,14.5518843 C19.472281,14.5518843 19.3347769,14.414281 19.3347769,14.2438512 L19.3347769,12.8684132 C19.3347769,12.2727273 19.8172562,11.7897521 20.4133388,11.7897521 C21.0087273,11.7897521 21.4919504,12.2727273 21.4919504,12.8684132 L21.4919504,14.2438512 L21.4919504,14.2438512 Z" id="Shape"></path>
                </g>
            </g>
        </g>
    </g>
</svg>