<?xml version="1.0" encoding="UTF-8"?>
<svg width="47px" height="57px" viewBox="0 0 47 57" version="1.1" xmlns="http://www.w3.org/2000/svg" xmlns:xlink="http://www.w3.org/1999/xlink">
    <!-- Generator: Sketch 61.2 (89653) - https://sketch.com -->
    <title>map-marker church</title>
    <desc>Created with Sketch.</desc>
    <defs>
        <circle id="path-1" cx="15.5" cy="15.5" r="15.5"></circle>
    </defs>
    <g id="DESIGN" stroke="none" stroke-width="1" fill="none" fill-rule="evenodd">
        <g id="map-markers-set" transform="translate(-694.000000, -39.000000)">
            <g id="map-marker-church" transform="translate(695.000000, 40.000000)">
                <path d="M22.5,0 C10.0936105,0 0,10.0936105 0,22.5 C0,32.5027902 6.59137832,41.2726005 16.1187221,44.0813337 L21.0623605,53.9686105 C21.3344029,54.5131138 21.8910435,54.8571429 22.5,54.8571429 C23.108538,54.8571429 23.6651786,54.5131138 23.9372209,53.9686105 L28.8808594,44.0817523 C38.4086217,41.273019 45,32.5032087 45,22.5 C45,10.0936105 34.9063895,0 22.5,0 Z M22.5,36.9642857 C14.5245536,36.9642857 8.03571429,30.4754464 8.03571429,22.5 C8.03571429,14.5245536 14.5245536,8.03571429 22.5,8.03571429 C30.4754464,8.03571429 36.9642857,14.5245536 36.9642857,22.5 C36.9642857,30.4754464 30.4754464,36.9642857 22.5,36.9642857 Z" id="Shape" stroke="#FFFFFF" fill="#1831AA" fill-rule="nonzero"></path>
                <g id="unnamed" transform="translate(7.000000, 7.000000)">
                    <mask id="mask-2" fill="white">
                        <use xlink:href="#path-1"></use>
                    </mask>
                    <use id="Mask" fill="#FFFFFF" xlink:href="#path-1"></use>
                </g>
                <g id="church" transform="translate(13.000000, 13.000000)" fill="#1831AA" fill-rule="nonzero">
                    <polygon id="Path" points="15.5298032 12.0282258 15.5298032 17.7225258 15.5298032 17.7414032 19 17.7414032 19 14.0340742"></polygon>
                    <polygon id="Path" points="0 17.7414032 3.47019677 17.7414032 3.47019677 17.7225258 3.47019677 12.0238129 0 14.0340742"></polygon>
                    <path d="M4.0831,10.0858742 L4.0831,17.7225258 L7.64081935,17.7225258 L7.64081935,14.4848645 C7.64081935,13.4694065 8.46407097,12.6461548 9.47952903,12.6461548 L9.52047097,12.6461548 C10.535929,12.6461548 11.3591806,13.4694065 11.3591806,14.4848645 L11.3591806,17.7225258 L14.9169,17.7225258 L14.9169,10.0858742 L9.5,5.59255806 L4.0831,10.0858742 Z" id="Path"></path>
                    <polygon id="Path" points="1.68560645 9.29081613 2.60471613 10.4061774 9.5 4.72444194 16.3952839 10.4061774 17.3143935 9.29081613 9.92903226 3.2053 9.92903226 1.85109032 11.2548032 1.85109032 11.2548032 0.993025806 9.92903226 0.993025806 9.92903226 0.0327903226 9.07096774 0.0327903226 9.07096774 0.993025806 7.74519677 0.993025806 7.74519677 1.85109032 9.07096774 1.85109032 9.07096774 3.2053"></polygon>
                </g>
            </g>
        </g>
    </g>
</svg>