<?xml version="1.0" encoding="UTF-8"?>
<svg width="52px" height="62px" viewBox="0 0 52 62" version="1.1" xmlns="http://www.w3.org/2000/svg" xmlns:xlink="http://www.w3.org/1999/xlink">
    <!-- Generator: Sketch 61.2 (89653) - https://sketch.com -->
    <title>map-marker church active</title>
    <desc>Created with Sketch.</desc>
    <defs>
        <circle id="path-1" cx="17.5" cy="17.5" r="17.5"></circle>
    </defs>
    <g id="DESIGN" stroke="none" stroke-width="1" fill="none" fill-rule="evenodd">
        <g id="map-markers-set" transform="translate(-757.000000, -39.000000)">
            <g id="map-marker-church-active" transform="translate(758.000000, 40.000000)">
                <path d="M25,0 C11.2151227,0 0,11.0398864 0,24.609375 C0,35.5499268 7.32375369,45.1419068 17.9096912,48.2139587 L23.4026227,59.0281677 C23.7048921,59.6237182 24.3233817,60 25,60 C25.6761533,60 26.2946429,59.6237182 26.5969121,59.0281677 L32.0898438,48.2144166 C42.6762463,45.1423645 50,35.5503845 50,24.609375 C50,11.0398864 38.7848773,0 25,0 Z M24.9285714,40.7890625 C16.1063492,40.7890625 8.92857143,33.6112847 8.92857143,24.7890625 C8.92857143,15.9668403 16.1063492,8.7890625 24.9285714,8.7890625 C33.7507937,8.7890625 40.9285714,15.9668403 40.9285714,24.7890625 C40.9285714,33.6112847 33.7507937,40.7890625 24.9285714,40.7890625 Z" id="Shape" stroke="#FFFFFF" fill="#051230" fill-rule="nonzero"></path>
                <g id="unnamed" transform="translate(8.000000, 7.868852)">
                    <mask id="mask-2" fill="white">
                        <use xlink:href="#path-1"></use>
                    </mask>
                    <use id="Mask" fill="#051230" xlink:href="#path-1"></use>
                </g>
                <g id="church" transform="translate(12.000000, 10.000000)" fill="#FFFFFF" fill-rule="nonzero">
                    <polygon id="Path" points="21.2513097 16.1898466 21.2513097 23.8543057 21.2513097 23.8797144 26 23.8797144 26 18.8896943"></polygon>
                    <polygon id="Path" points="0 23.8797144 4.74869032 23.8797144 4.74869032 23.8543057 4.74869032 16.1839069 0 18.8896943"></polygon>
                    <path d="M5.5874,13.5754648 L5.5874,23.8543057 L10.4558581,23.8543057 L10.4558581,19.4964527 C10.4558581,18.1296584 11.5824129,17.0215717 12.9719871,17.0215717 L13.0280129,17.0215717 C14.4175871,17.0215717 15.5441419,18.1296584 15.5441419,19.4964527 L15.5441419,23.8543057 L20.4126,23.8543057 L20.4126,13.5754648 L13,7.5275156 L5.5874,13.5754648 Z" id="Path"></path>
                    <polygon id="Path" points="2.30661935 12.5053263 3.56434839 14.0065891 13 6.35904178 22.4356516 14.0065891 23.6933806 12.5053263 13.5870968 4.31429508 13.5870968 2.49154521 15.4013097 2.49154521 15.4013097 1.33660074 13.5870968 1.33660074 13.5870968 0.0441353781 12.4129032 0.0441353781 12.4129032 1.33660074 10.5986903 1.33660074 10.5986903 2.49154521 12.4129032 2.49154521 12.4129032 4.31429508"></polygon>
                </g>
            </g>
        </g>
    </g>
</svg>