<?xml version="1.0" encoding="UTF-8"?>
<svg width="47px" height="57px" viewBox="0 0 47 57" version="1.1" xmlns="http://www.w3.org/2000/svg" xmlns:xlink="http://www.w3.org/1999/xlink">
    <!-- Generator: Sketch 61.2 (89653) - https://sketch.com -->
    <title>map-marker kostel</title>
    <desc>Created with Sketch.</desc>
    <defs>
        <circle id="path-1" cx="15.5" cy="15.5" r="15.5"></circle>
    </defs>
    <g id="DESIGN" stroke="none" stroke-width="1" fill="none" fill-rule="evenodd">
        <g id="map-markers-set" transform="translate(-694.000000, -118.000000)">
            <g id="map-marker-kostel" transform="translate(695.000000, 119.000000)">
                <path d="M22.5,0 C10.0936105,0 0,10.0936105 0,22.5 C0,32.5027902 6.59137832,41.2726005 16.1187221,44.0813337 L21.0623605,53.9686105 C21.3344029,54.5131138 21.8910435,54.8571429 22.5,54.8571429 C23.108538,54.8571429 23.6651786,54.5131138 23.9372209,53.9686105 L28.8808594,44.0817523 C38.4086217,41.273019 45,32.5032087 45,22.5 C45,10.0936105 34.9063895,0 22.5,0 Z M22.5,36.9642857 C14.5245536,36.9642857 8.03571429,30.4754464 8.03571429,22.5 C8.03571429,14.5245536 14.5245536,8.03571429 22.5,8.03571429 C30.4754464,8.03571429 36.9642857,14.5245536 36.9642857,22.5 C36.9642857,30.4754464 30.4754464,36.9642857 22.5,36.9642857 Z" id="Shape" stroke="#FFFFFF" fill="#1831AA" fill-rule="nonzero"></path>
                <g id="unnamed" transform="translate(7.000000, 7.000000)">
                    <mask id="mask-2" fill="white">
                        <use xlink:href="#path-1"></use>
                    </mask>
                    <use id="Mask" fill="#FFFFFF" xlink:href="#path-1"></use>
                </g>
                <g id="kostel-icon" transform="translate(13.000000, 12.000000)" fill="#1831AA" fill-rule="nonzero">
                    <polygon id="Path" points="8.40762485 14.6591288 8.40762485 18.9997826 10.6341958 18.9997826 10.6341958 14.6591288 9.52091034 13.9169385"></polygon>
                    <path d="M9.52337464,8.23816773 C9.21635139,8.23816773 8.96673189,8.48793214 8.96673189,8.79481048 C8.96673189,9.10168877 9.21635139,9.35145322 9.52337464,9.35145322 C9.83025297,9.35145322 10.0800174,9.10168877 10.0800174,8.79481048 C10.0800174,8.48793214 9.83025297,8.23816773 9.52337464,8.23816773 Z" id="Path"></path>
                    <path d="M14.3281873,7.25215626 L10.0775531,3.74545193 L10.0775531,2.33789954 L10.9539755,2.33789954 C11.2612887,2.33789954 11.5106183,2.08856998 11.5106183,1.78125679 C11.5106183,1.47379866 11.2612887,1.22461405 10.9539755,1.22461405 L10.0775531,1.22461405 L10.0775531,0.556642748 C10.0775531,0.249184615 9.82822353,0 9.52091034,0 C9.21345221,0 8.96426759,0.249184615 8.96426759,0.556642748 L8.96426759,1.22461405 L8.08784517,1.22461405 C7.78038703,1.22461405 7.53120242,1.47379866 7.53120242,1.78125679 C7.53120242,2.08856998 7.78038703,2.33789954 8.08784517,2.33789954 L8.96426759,2.33789954 L8.96426759,3.74545193 L4.71363339,7.25215626 C4.58534464,7.35797638 4.51112561,7.51540189 4.51112561,7.68152498 L4.51112561,18.4431398 C4.51112561,18.750598 4.76045517,18.9997826 5.06776836,18.9997826 L7.29433935,18.9997826 L7.29433935,14.361093 C7.29433935,14.1751105 7.38740304,14.0013046 7.54221934,13.8979488 L9.21214759,12.7846633 C9.39914474,12.6601435 9.64267594,12.6601435 9.8296731,12.7846633 L11.4996013,13.8979488 C11.6544176,14.0013046 11.7474813,14.1751105 11.7474813,14.361093 L11.7474813,18.9997826 L13.9740523,18.9997826 C14.2813655,18.9997826 14.5306951,18.750598 14.5306951,18.4431398 L14.5306951,7.68152498 C14.5305501,7.51540189 14.4563311,7.35797638 14.3281873,7.25215626 Z M9.52337464,10.4647387 C8.60259476,10.4647387 7.85344639,9.71559036 7.85344639,8.79481048 C7.85344639,7.8740306 8.60259476,7.12488223 9.52337464,7.12488223 C10.4441545,7.12488223 11.1933029,7.8740306 11.1933029,8.79481048 C11.1933029,9.71559036 10.4441545,10.4647387 9.52337464,10.4647387 Z" id="Shape"></path>
                    <path d="M0.0185547583,12.9288976 L0.0185547583,18.4434297 C0.0185547583,18.7508879 0.267739373,19.0000725 0.575197507,19.0000725 L3.39552077,19.0000725 L3.39798506,9.87852433 L0.220917591,12.4995289 C0.0927737914,12.605204 0.0185547583,12.7627745 0.0185547583,12.9288976 Z" id="Path"></path>
                    <path d="M18.8159745,12.4995289 L15.6438356,9.88258318 L15.6436907,19.0000725 L18.4616946,19.0000725 C18.7691527,19.0000725 19.0183373,18.7507429 19.0183373,18.4434297 L19.0183373,12.9288976 C19.0183373,12.7627745 18.9441183,12.605204 18.8159745,12.4995289 L18.8159745,12.4995289 Z" id="Path"></path>
                </g>
            </g>
        </g>
    </g>
</svg>