<?xml version="1.0" encoding="UTF-8"?>
<svg width="52px" height="62px" viewBox="0 0 52 62" version="1.1" xmlns="http://www.w3.org/2000/svg" xmlns:xlink="http://www.w3.org/1999/xlink">
    <!-- Generator: Sketch 61.2 (89653) - https://sketch.com -->
    <title>map-marker kostel active</title>
    <desc>Created with Sketch.</desc>
    <defs>
        <circle id="path-1" cx="17.5" cy="17.5" r="17.5"></circle>
    </defs>
    <g id="DESIGN" stroke="none" stroke-width="1" fill="none" fill-rule="evenodd">
        <g id="map-markers-set" transform="translate(-757.000000, -118.000000)">
            <g id="map-marker-kostel-active" transform="translate(758.000000, 119.000000)">
                <path d="M25,0 C11.2151227,0 0,11.0398864 0,24.609375 C0,35.5499268 7.32375369,45.1419068 17.9096912,48.2139587 L23.4026227,59.0281677 C23.7048921,59.6237182 24.3233817,60 25,60 C25.6761533,60 26.2946429,59.6237182 26.5969121,59.0281677 L32.0898438,48.2144166 C42.6762463,45.1423645 50,35.5503845 50,24.609375 C50,11.0398864 38.7848773,0 25,0 Z M24.9285714,40.7890625 C16.1063492,40.7890625 8.92857143,33.6112847 8.92857143,24.7890625 C8.92857143,15.9668403 16.1063492,8.7890625 24.9285714,8.7890625 C33.7507937,8.7890625 40.9285714,15.9668403 40.9285714,24.7890625 C40.9285714,33.6112847 33.7507937,40.7890625 24.9285714,40.7890625 Z" id="Shape" stroke="#FFFFFF" fill="#051230" fill-rule="nonzero"></path>
                <g id="unnamed" transform="translate(8.000000, 7.868852)">
                    <mask id="mask-2" fill="white">
                        <use xlink:href="#path-1"></use>
                    </mask>
                    <use id="Mask" fill="#051230" xlink:href="#path-1"></use>
                </g>
                <g id="kostel-icon" transform="translate(13.000000, 11.000000)" fill="#FFFFFF" fill-rule="nonzero">
                    <polygon id="Path" points="10.6201577 18.5167943 10.6201577 23.9997254 13.4326684 23.9997254 13.4326684 18.5167943 12.0264131 17.5792907"></polygon>
                    <path d="M12.0295259,10.4061066 C11.641707,10.4061066 11.3263982,10.7215985 11.3263982,11.1092343 C11.3263982,11.49687 11.641707,11.812362 12.0295259,11.812362 C12.4171616,11.812362 12.7326535,11.49687 12.7326535,11.1092343 C12.7326535,10.7215985 12.4171616,10.4061066 12.0295259,10.4061066 Z" id="Path"></path>
                    <path d="M18.0987629,9.16061843 L12.7295407,4.73109717 L12.7295407,2.95313627 L13.8366007,2.95313627 C14.2247857,2.95313627 14.5397283,2.63819366 14.5397283,2.25000858 C14.5397283,1.86164041 14.2247857,1.5468809 13.8366007,1.5468809 L12.7295407,1.5468809 L12.7295407,0.703127682 C12.7295407,0.314759513 12.4145981,0 12.0264131,0 C11.6380449,0 11.3232854,0.314759513 11.3232854,0.703127682 L11.3232854,1.5468809 L10.2162255,1.5468809 C9.8278573,1.5468809 9.51309779,1.86164041 9.51309779,2.25000858 C9.51309779,2.63819366 9.8278573,2.95313627 10.2162255,2.95313627 L11.3232854,2.95313627 L11.3232854,4.73109717 L5.95406323,9.16061843 C5.79201428,9.29428595 5.69826392,9.49313923 5.69826392,9.70297892 L5.69826392,23.2965977 C5.69826392,23.6849659 6.01320653,23.9997254 6.40139161,23.9997254 L9.21390234,23.9997254 L9.21390234,18.140328 C9.21390234,17.9054028 9.33145647,17.6858585 9.52701391,17.5553038 L11.636397,16.1490484 C11.8726039,15.9917602 12.1802222,15.9917602 12.4164292,16.1490484 L14.5258122,17.5553038 C14.7213697,17.6858585 14.8389238,17.9054028 14.8389238,18.140328 L14.8389238,23.9997254 L17.6514345,23.9997254 C18.0396196,23.9997254 18.3545622,23.6849659 18.3545622,23.2965977 L18.3545622,9.70297892 C18.3543791,9.49313923 18.2606288,9.29428595 18.0987629,9.16061843 Z M12.0295259,13.2186173 C10.8664355,13.2186173 9.92014281,12.2723247 9.92014281,11.1092343 C9.92014281,9.94614391 10.8664355,8.99985124 12.0295259,8.99985124 C13.1926162,8.99985124 14.1389089,9.94614391 14.1389089,11.1092343 C14.1389089,12.2723247 13.1926162,13.2186173 12.0295259,13.2186173 Z" id="Shape"></path>
                    <path d="M0.0234375894,16.3312391 L0.0234375894,23.2969639 C0.0234375894,23.685332 0.338197103,24.0000916 0.726565272,24.0000916 L4.28907886,24.0000916 L4.29219165,12.478136 L0.279053799,15.7888786 C0.117187947,15.922363 0.0234375894,16.1213994 0.0234375894,16.3312391 Z" id="Path"></path>
                    <path d="M23.7675467,15.7888786 L19.7606345,12.483263 L19.7604514,24.0000916 L23.3200353,24.0000916 C23.7084034,24.0000916 24.023163,23.6851489 24.023163,23.2969639 L24.023163,16.3312391 C24.023163,16.1213994 23.9294126,15.922363 23.7675467,15.7888786 L23.7675467,15.7888786 Z" id="Path"></path>
                </g>
            </g>
        </g>
    </g>
</svg>