<?xml version="1.0" encoding="UTF-8"?>
<svg width="47px" height="57px" viewBox="0 0 47 57" version="1.1" xmlns="http://www.w3.org/2000/svg" xmlns:xlink="http://www.w3.org/1999/xlink">
    <!-- Generator: Sketch 61.2 (89653) - https://sketch.com -->
    <title>map-marker tower</title>
    <desc>Created with Sketch.</desc>
    <defs>
        <circle id="path-1" cx="15.5" cy="15.5" r="15.5"></circle>
    </defs>
    <g id="DESIGN" stroke="none" stroke-width="1" fill="none" fill-rule="evenodd">
        <g id="map-markers-set" transform="translate(-694.000000, -276.000000)">
            <g id="map-marker-tower" transform="translate(695.000000, 277.000000)">
                <path d="M22.5,0 C10.0936105,0 0,10.0936105 0,22.5 C0,32.5027902 6.59137832,41.2726005 16.1187221,44.0813337 L21.0623605,53.9686105 C21.3344029,54.5131138 21.8910435,54.8571429 22.5,54.8571429 C23.108538,54.8571429 23.6651786,54.5131138 23.9372209,53.9686105 L28.8808594,44.0817523 C38.4086217,41.273019 45,32.5032087 45,22.5 C45,10.0936105 34.9063895,0 22.5,0 Z M22.5,36.9642857 C14.5245536,36.9642857 8.03571429,30.4754464 8.03571429,22.5 C8.03571429,14.5245536 14.5245536,8.03571429 22.5,8.03571429 C30.4754464,8.03571429 36.9642857,14.5245536 36.9642857,22.5 C36.9642857,30.4754464 30.4754464,36.9642857 22.5,36.9642857 Z" id="Shape" stroke="#FFFFFF" fill="#1831AA" fill-rule="nonzero"></path>
                <g id="unnamed" transform="translate(7.000000, 7.000000)">
                    <mask id="mask-2" fill="white">
                        <use xlink:href="#path-1"></use>
                    </mask>
                    <use id="Mask" fill="#FFFFFF" xlink:href="#path-1"></use>
                    <g id="tower" mask="url(#mask-2)" fill="#1831AA" fill-rule="nonzero">
                        <g transform="translate(9.000000, 8.000000)">
                            <path d="M12.2530396,-8.40808904e-14 L9.94537445,-8.40808904e-14 C9.78967401,-8.40808904e-14 9.66343612,0.126237885 9.66343612,0.281938326 L9.66343612,1.69162996 L7.7814978,1.69162996 L7.7814978,0.281938326 C7.7814978,0.126237885 7.65525991,-8.40808904e-14 7.49955947,-8.40808904e-14 L5.03400881,-8.40808904e-14 C4.87830837,-8.40808904e-14 4.75207048,0.126237885 4.75207048,0.281938326 L4.75207048,1.69162996 L2.87154185,1.69162996 L2.87154185,0.281938326 C2.87154185,0.126237885 2.74530396,-8.40808904e-14 2.58960352,-8.40808904e-14 L0.281938326,-8.40808904e-14 C0.126237885,-8.40808904e-14 -6.78963059e-14,0.126237885 -6.78963059e-14,0.281938326 L-6.78963059e-14,3.30854626 C0.00155066079,4.07164758 0.619806167,4.68990308 1.38290749,4.69145374 L1.38854626,4.69145374 L11.1520705,4.69145374 C11.9151718,4.68990308 12.5334273,4.07164758 12.534978,3.30854626 L12.534978,0.281938326 C12.534978,0.126237885 12.4087401,-8.40808904e-14 12.2530396,-8.40808904e-14 Z" id="Path"></path>
                            <path d="M10.9222907,5.11295154 L1.61832599,5.11295154 L1.21934594,14.1645815 L1.21934594,14.2519824 C1.2166696,14.6822203 1.36200881,15.1003348 1.63101322,15.4361233 C1.87795595,15.7537269 2.24881057,15.950696 2.65022026,15.9774449 L9.89180617,15.9774449 C10.2932159,15.950696 10.6640705,15.7537269 10.9110132,15.4361233 C11.1800176,15.1003348 11.3253568,14.6822203 11.3226805,14.2519824 C11.3226805,14.2350661 11.3226805,14.2054626 11.3226805,14.1645815 L10.9222907,5.11295154 Z M8.40881057,15.4276652 L4.12898678,15.4276652 L4.12898678,11.4579736 C4.12898678,10.2749604 5.088,9.31594714 6.27101322,9.31594714 C7.45402643,9.31594714 8.41303965,10.2749604 8.41303965,11.4579736 L8.40881057,15.4276652 Z" id="Shape"></path>
                        </g>
                    </g>
                </g>
            </g>
        </g>
    </g>
</svg>