<?xml version="1.0" encoding="UTF-8"?>
<svg width="52px" height="62px" viewBox="0 0 52 62" version="1.1" xmlns="http://www.w3.org/2000/svg" xmlns:xlink="http://www.w3.org/1999/xlink">
    <!-- Generator: Sketch 61.2 (89653) - https://sketch.com -->
    <title>map-marker tower active</title>
    <desc>Created with Sketch.</desc>
    <defs>
        <circle id="path-1" cx="17.5" cy="17.5" r="17.5"></circle>
    </defs>
    <g id="DESIGN" stroke="none" stroke-width="1" fill="none" fill-rule="evenodd">
        <g id="map-markers-set" transform="translate(-757.000000, -276.000000)">
            <g id="map-marker-tower-active" transform="translate(758.000000, 277.000000)">
                <path d="M25,0 C11.2151227,0 0,11.0398864 0,24.609375 C0,35.5499268 7.32375369,45.1419068 17.9096912,48.2139587 L23.4026227,59.0281677 C23.7048921,59.6237182 24.3233817,60 25,60 C25.6761533,60 26.2946429,59.6237182 26.5969121,59.0281677 L32.0898438,48.2144166 C42.6762463,45.1423645 50,35.5503845 50,24.609375 C50,11.0398864 38.7848773,0 25,0 Z M24.9285714,40.7890625 C16.1063492,40.7890625 8.92857143,33.6112847 8.92857143,24.7890625 C8.92857143,15.9668403 16.1063492,8.7890625 24.9285714,8.7890625 C33.7507937,8.7890625 40.9285714,15.9668403 40.9285714,24.7890625 C40.9285714,33.6112847 33.7507937,40.7890625 24.9285714,40.7890625 Z" id="Shape" stroke="#FFFFFF" fill="#051230" fill-rule="nonzero"></path>
                <g id="unnamed" transform="translate(8.000000, 7.868852)">
                    <mask id="mask-2" fill="white">
                        <use xlink:href="#path-1"></use>
                    </mask>
                    <use id="Mask" fill="#051230" xlink:href="#path-1"></use>
                    <g id="tower" mask="url(#mask-2)" fill="#FFFFFF" fill-rule="nonzero">
                        <g transform="translate(9.000000, 6.131148)">
                            <path d="M16.8479295,-1.15611224e-13 L13.6748899,-1.15611224e-13 C13.4608018,-1.15611224e-13 13.2872247,0.173577093 13.2872247,0.387665198 L13.2872247,2.32599119 L10.6995595,2.32599119 L10.6995595,0.387665198 C10.6995595,0.173577093 10.5259824,-1.15611224e-13 10.3118943,-1.15611224e-13 L6.92176211,-1.15611224e-13 C6.70767401,-1.15611224e-13 6.53409692,0.173577093 6.53409692,0.387665198 L6.53409692,2.32599119 L3.94837004,2.32599119 L3.94837004,0.387665198 C3.94837004,0.173577093 3.77479295,-1.15611224e-13 3.56070485,-1.15611224e-13 L0.387665198,-1.15611224e-13 C0.173577093,-1.15611224e-13 -9.33574206e-14,0.173577093 -9.33574206e-14,0.387665198 L-9.33574206e-14,4.5492511 C0.00213215859,5.59851542 0.85223348,6.44861674 1.9014978,6.4507489 L1.9092511,6.4507489 L15.3340969,6.4507489 C16.3833612,6.44861674 17.2334626,5.59851542 17.2355947,4.5492511 L17.2355947,0.387665198 C17.2355947,0.173577093 17.0620176,-1.15611224e-13 16.8479295,-1.15611224e-13 Z" id="Path"></path>
                            <path d="M15.0181498,7.03030837 L2.22519824,7.03030837 L1.67660066,19.4762996 L1.67660066,19.5964758 C1.6729207,20.1880529 1.87276211,20.7629604 2.24264317,21.2246696 C2.58218943,21.6613744 3.09211454,21.932207 3.64405286,21.9689868 L13.6012335,21.9689868 C14.1531718,21.932207 14.6630969,21.6613744 15.0026432,21.2246696 C15.3725242,20.7629604 15.5723656,20.1880529 15.5686857,19.5964758 C15.5686857,19.5732159 15.5686857,19.532511 15.5686857,19.4762996 L15.0181498,7.03030837 Z M11.5621145,21.2130396 L5.67735683,21.2130396 L5.67735683,15.7547137 C5.67735683,14.1280705 6.996,12.8094273 8.62264317,12.8094273 C10.2492863,12.8094273 11.5679295,14.1280705 11.5679295,15.7547137 L11.5621145,21.2130396 Z" id="Shape"></path>
                        </g>
                    </g>
                </g>
            </g>
        </g>
    </g>
</svg>